<?xml version="1.0" encoding="utf-8"?>
<!-- Generator: Adobe Illustrator 21.1.0, SVG Export Plug-In . SVG Version: 6.00 Build 0)  -->
<svg version="1.1" id="Layer_1" xmlns="http://www.w3.org/2000/svg" xmlns:xlink="http://www.w3.org/1999/xlink" x="0px" y="0px"
	 viewBox="0 0 24 24" style="enable-background:new 0 0 24 24;" xml:space="preserve">
<style type="text/css">
	.st0{fill:#757575;}
</style>
<g id="Page-1">
	<g id="Item-Details" transform="translate(-218.000000, -134.000000)">
		<g id="Group-5" transform="translate(184.000000, 72.000000)">
			<g id="Item-Details-Top">
				<g id="Photo-Section" transform="translate(32.000000, 60.000000)">
					<g id="Icons_x2F_Zoom_x2F_Zoom-In_x2F_Gray">
						<path id="Combined-Shape" class="st0" d="M13,11h2c0.552,0,1,0.448,1,1c0,0.552-0.448,1-1,1h-2v2c0,0.552-0.448,1-1,1
							c-0.552,0-1-0.448-1-1v-2H9c-0.552,0-1-0.448-1-1c0-0.552,0.448-1,1-1h2V9c0-0.552,0.448-1,1-1c0.552,0,1,0.448,1,1V11z
							 M23.45,22.599c0.184,0.298,0.201,0.666,0.03,0.837c-0.219,0.219-0.592,0.219-0.811,0l-5.509-5.497l-0.28,0.228
							c-1.314,1.073-2.979,1.657-4.75,1.657c-4.282,0-7.73-3.44-7.73-7.712S7.848,4.4,12.13,4.4s7.73,3.44,7.73,7.712
							c0,1.767-0.586,3.428-1.66,4.739l-0.23,0.281L23.45,22.599z M12.13,18.753c3.64,0,6.654-2.966,6.654-6.64
							c0-3.716-2.931-6.64-6.654-6.64s-6.654,2.925-6.654,6.64S8.407,18.753,12.13,18.753z"/>
					</g>
				</g>
			</g>
		</g>
	</g>
</g>
</svg>
